<mxfile host="app.diagrams.net" modified="2023-12-12T18:45:23.923Z" agent="Mozilla/5.0 (X11; Linux x86_64) AppleWebKit/537.36 (KHTML, like Gecko) Chrome/118.0.0.0 Safari/537.36" etag="7Kpr0G6wHFKnMpuFt1lf" version="22.1.8" type="device">
  <diagram name="Page-1" id="42789a77-a242-8287-6e28-9cd8cfd52e62">
    <mxGraphModel dx="920" dy="761" grid="1" gridSize="10" guides="1" tooltips="1" connect="1" arrows="1" fold="1" page="1" pageScale="1" pageWidth="1100" pageHeight="850" background="none" math="0" shadow="0">
      <root>
        <mxCell id="0" />
        <mxCell id="1" parent="0" />
        <mxCell id="get9t_uqFQboYUZtk_Ee-2" style="edgeStyle=orthogonalEdgeStyle;rounded=0;orthogonalLoop=1;jettySize=auto;html=1;entryX=0.5;entryY=0;entryDx=0;entryDy=0;" edge="1" parent="1" source="1ea317790d2ca983-1" target="get9t_uqFQboYUZtk_Ee-1">
          <mxGeometry relative="1" as="geometry" />
        </mxCell>
        <mxCell id="1ea317790d2ca983-1" value="Ni" style="ellipse;whiteSpace=wrap;html=1;rounded=0;shadow=1;comic=0;labelBackgroundColor=none;strokeWidth=1;fontFamily=Verdana;fontSize=12;align=center;" parent="1" vertex="1">
          <mxGeometry x="470" y="80" width="90" height="60" as="geometry" />
        </mxCell>
        <mxCell id="get9t_uqFQboYUZtk_Ee-4" style="edgeStyle=orthogonalEdgeStyle;rounded=0;orthogonalLoop=1;jettySize=auto;html=1;entryX=0.5;entryY=0;entryDx=0;entryDy=0;" edge="1" parent="1" source="get9t_uqFQboYUZtk_Ee-1" target="get9t_uqFQboYUZtk_Ee-3">
          <mxGeometry relative="1" as="geometry" />
        </mxCell>
        <mxCell id="get9t_uqFQboYUZtk_Ee-5" value="true" style="edgeLabel;html=1;align=center;verticalAlign=middle;resizable=0;points=[];" vertex="1" connectable="0" parent="get9t_uqFQboYUZtk_Ee-4">
          <mxGeometry x="-0.05" y="3" relative="1" as="geometry">
            <mxPoint x="-3" as="offset" />
          </mxGeometry>
        </mxCell>
        <mxCell id="get9t_uqFQboYUZtk_Ee-7" style="edgeStyle=orthogonalEdgeStyle;rounded=0;orthogonalLoop=1;jettySize=auto;html=1;entryX=0.5;entryY=0;entryDx=0;entryDy=0;" edge="1" parent="1" source="get9t_uqFQboYUZtk_Ee-1" target="get9t_uqFQboYUZtk_Ee-6">
          <mxGeometry relative="1" as="geometry" />
        </mxCell>
        <mxCell id="get9t_uqFQboYUZtk_Ee-8" value="false" style="edgeLabel;html=1;align=center;verticalAlign=middle;resizable=0;points=[];" vertex="1" connectable="0" parent="get9t_uqFQboYUZtk_Ee-7">
          <mxGeometry x="-0.2" relative="1" as="geometry">
            <mxPoint x="18" as="offset" />
          </mxGeometry>
        </mxCell>
        <mxCell id="get9t_uqFQboYUZtk_Ee-1" value="N1" style="ellipse;whiteSpace=wrap;html=1;rounded=0;shadow=1;comic=0;labelBackgroundColor=none;strokeWidth=1;fontFamily=Verdana;fontSize=12;align=center;" vertex="1" parent="1">
          <mxGeometry x="470" y="180" width="90" height="60" as="geometry" />
        </mxCell>
        <mxCell id="get9t_uqFQboYUZtk_Ee-11" style="edgeStyle=orthogonalEdgeStyle;rounded=0;orthogonalLoop=1;jettySize=auto;html=1;entryX=1;entryY=0.5;entryDx=0;entryDy=0;" edge="1" parent="1" source="get9t_uqFQboYUZtk_Ee-3" target="get9t_uqFQboYUZtk_Ee-9">
          <mxGeometry relative="1" as="geometry" />
        </mxCell>
        <mxCell id="get9t_uqFQboYUZtk_Ee-3" value="N2, N3, N4, N5, N6" style="ellipse;whiteSpace=wrap;html=1;rounded=0;shadow=1;comic=0;labelBackgroundColor=none;strokeWidth=1;fontFamily=Verdana;fontSize=12;align=center;" vertex="1" parent="1">
          <mxGeometry x="470" y="280" width="90" height="60" as="geometry" />
        </mxCell>
        <mxCell id="get9t_uqFQboYUZtk_Ee-10" style="edgeStyle=orthogonalEdgeStyle;rounded=0;orthogonalLoop=1;jettySize=auto;html=1;exitX=0.5;exitY=1;exitDx=0;exitDy=0;entryX=0;entryY=0.5;entryDx=0;entryDy=0;" edge="1" parent="1" source="get9t_uqFQboYUZtk_Ee-6" target="get9t_uqFQboYUZtk_Ee-9">
          <mxGeometry relative="1" as="geometry" />
        </mxCell>
        <mxCell id="get9t_uqFQboYUZtk_Ee-6" value="N7, N8" style="ellipse;whiteSpace=wrap;html=1;rounded=0;shadow=1;comic=0;labelBackgroundColor=none;strokeWidth=1;fontFamily=Verdana;fontSize=12;align=center;" vertex="1" parent="1">
          <mxGeometry x="330" y="280" width="90" height="60" as="geometry" />
        </mxCell>
        <mxCell id="get9t_uqFQboYUZtk_Ee-9" value="N7" style="ellipse;whiteSpace=wrap;html=1;rounded=0;shadow=1;comic=0;labelBackgroundColor=none;strokeWidth=1;fontFamily=Verdana;fontSize=12;align=center;" vertex="1" parent="1">
          <mxGeometry x="400" y="360" width="90" height="60" as="geometry" />
        </mxCell>
      </root>
    </mxGraphModel>
  </diagram>
</mxfile>
